<svg version="1" xmlns="http://www.w3.org/2000/svg" width="1034.667" height="1034.667" viewBox="0 0 776.000000 776.000000"><path d="M375.5.7C309.7 4.6 254 22.8 201 57.6 143.5 95.3 96.6 152.8 71 217c-14.4 36.3-21.7 70-24.1 112.1-1.4 24.3-.6 121.5 1 136.4 7.9 69.8 32.1 128.5 75.5 183 10.1 12.7 38.2 40.8 50.6 50.7 56 44.5 118.5 69.6 189 75.8 7.2.6 77.9 1 190.8 1H733V536.2c0-238 0-239.9-2.1-251.2-10.4-57.7-34.5-110.7-71.1-156.4-10.4-12.9-39.5-42-51.8-51.7-49.8-39.5-105.9-64-166.5-72.8-22.6-3.3-47.2-4.6-66-3.4zm42.2 161.8c59.2 7.7 112.3 41 145.6 91.2 14.9 22.4 25.3 48.2 31 76.8 2.1 10.9 2.1 12.3 2.5 125.2l.3 114.3H650v67H530.1l-.4-145.3c-.3-135-.4-145.7-2.1-152.7-6.4-27.3-18.4-49.6-36.8-68.6-5.4-5.5-13.4-12.6-17.7-15.8-15.4-11-35.7-20.1-54.1-24.1-10.3-2.2-34.6-3.1-45.1-1.6-46.3 6.6-84.3 33.3-105.9 74.2-8.6 16.5-13.6 34.6-15.6 57.1l-.6 6.8h-32.9c-28.4 0-33-.2-33.5-1.5-1-2.5 1.6-27.9 4.1-39.8 16-77 73.9-138.3 149.5-158.1 8.8-2.3 23.7-5.1 32-5.9 9.9-1 36.1-.5 46.7.8zm-14.5 212.6c13.6 2.9 27.3 12 35.2 23.6 21.9 32.2 7.3 74.5-30.2 87.4-24.8 8.5-55-3.9-67.4-27.7-12-22.9-8-49.2 10.2-67.4 14-14 33.3-19.9 52.2-15.9z"/></svg>